<svg xmlns="http://www.w3.org/2000/svg" viewBox="0 0 803 259"><defs><style>.cls-1{fill:#f0f0f0;}.cls-2{fill:#e6e6e6;}.cls-3{fill:#3f3d56;}.cls-4{fill:#fff;}.cls-5{fill:#ffb7b7;}.cls-6{fill:#2f2e41;}.cls-7{fill:#9e616a;}</style></defs><g id="Layer_2" data-name="Layer 2"><g id="Layer_1-2" data-name="Layer 1"><path class="cls-1" d="M781.26,232H751.74a4.57,4.57,0,0,0-3.49,1.62,7,7,0,0,0-2.54,13.76,6.91,6.91,0,0,0,4.34-.59l2.45,8a4.6,4.6,0,0,0,4.41,3.26h19.18a4.6,4.6,0,0,0,4.41-3.26L785.66,238a4.61,4.61,0,0,0-3-5.77A4.74,4.74,0,0,0,781.26,232ZM747,245.5a5,5,0,0,1,0-10l.27,0a4.5,4.5,0,0,0,.07,2.44l2.11,6.86A5,5,0,0,1,747,245.5Z"/><path class="cls-1" d="M62.26,211H32.74a4.57,4.57,0,0,0-3.49,1.62,7,7,0,0,0-2.54,13.76,6.91,6.91,0,0,0,4.34-.59l3.45,29A4.6,4.6,0,0,0,38.91,258H58.09a4.6,4.6,0,0,0,4.41-3.26L66.66,217a4.61,4.61,0,0,0-3-5.77A4.74,4.74,0,0,0,62.26,211ZM28,224.5a5,5,0,0,1,0-10l.27,0a4.5,4.5,0,0,0,.07,2.44l2.11,6.86A5,5,0,0,1,28,224.5Z"/><path class="cls-2" d="M410.91,187a8,8,0,1,0-8,8h.3a71.3,71.3,0,0,1,3.14,19.83,63.48,63.48,0,0,1-.58,10c-.34,2.36-1,5.06-3.33,6.17-1.75.82-.23,3.4,1.51,2.59,2.64-1.25,3.92-4,4.5-6.75a52.8,52.8,0,0,0,.9-10.64,74.15,74.15,0,0,0-3.21-21.9A8,8,0,0,0,410.91,187Z"/><path id="a0da58c6-f23b-4b1c-a031-0451c6211c58-168" class="cls-2" d="M408.47,235.21S397.74,208.8,429.92,189Z"/><path id="fe698360-631b-4312-af6d-5610d78e8b38-169" class="cls-2" d="M407.89,234.73s-3.27-18.82-28.59-18.66Z"/><path class="cls-1" d="M425.84,257.84h-44a4.51,4.51,0,0,1-4.05-2.53l-9.57-19.68a4.5,4.5,0,0,1,2.08-6,4.57,4.57,0,0,1,2-.45h63.14a4.51,4.51,0,0,1,4,6.47l-9.57,19.68A4.51,4.51,0,0,1,425.84,257.84Z"/><path class="cls-3" d="M802,259H1a1,1,0,0,1,0-2H802a1,1,0,0,1,0,2Z"/><polygon class="cls-4" points="167.07 200.93 147.64 127.44 145.39 118.96 147.5 117 183.72 99.06 235.48 100.34 265.87 115.94 266.03 127.44 267.53 231.03 273.6 256.46 162.42 256.46 171.05 215.96 167.07 200.93"/><path class="cls-4" d="M294.93,256.46H266l-8-57.76,2.09-71.26.29-9.69,5.53-1.81A35.15,35.15,0,0,1,276,127.44c3.56,6.19,6.51,15.06,5.77,27,0,0,.66,14.07,0,23.45C281.34,184.27,288.81,224.76,294.93,256.46Z"/><path class="cls-4" d="M167.18,200.19l-.1.74-7.69,55.53H126.07c2.67-31.47,5.81-70.8,5.39-77.11-.62-9.37,0-23.45,0-23.45-.79-12.91,2.74-22.22,6.67-28.46a37.88,37.88,0,0,1,7.23-8.48,18.12,18.12,0,0,1,2-1.52l5.53,1.79,1.44,8.21Z"/><path class="cls-5" d="M171,50.77A35.88,35.88,0,1,0,206.9,14.89h0A35.79,35.79,0,0,0,171,50.59Z"/><path class="cls-3" d="M321.5,250.74h0a7.72,7.72,0,0,1-7.72,7.72H107.22a7.72,7.72,0,0,1-7.72-7.72h0a7.72,7.72,0,0,1,7.72-7.72h2.29a5.66,5.66,0,0,1-.2-1.42V136.15a6.7,6.7,0,0,1,6.71-6.71H305a6.7,6.7,0,0,1,6.71,6.71V241.6a5.24,5.24,0,0,1-.2,1.42h2.29A7.72,7.72,0,0,1,321.5,250.74Z"/><path class="cls-6" d="M546,81.68V60.5a48,48,0,0,1,96,0V81.68A10.84,10.84,0,0,1,631.18,92.5H566.3L561,81.24V92.5h-4.18A10.84,10.84,0,0,1,546,81.68Z"/><path class="cls-7" d="M629,149.48l2.06,22.4.94,10.18,1.5,16.21.19,2.09,1.22,13.16,0,.14a12,12,0,0,0,11.59,8.42l55.68-1,15.72-.27a13.1,13.1,0,0,0,.89,1.23,15.51,15.51,0,0,0,11.28,5.63A15.34,15.34,0,0,0,741.86,223c.3-.31.6-.64.87-1a15.48,15.48,0,0,0,1-18.15A15.29,15.29,0,0,0,733.11,197,15.46,15.46,0,0,0,721,200.33a14.38,14.38,0,0,0-1.49,1.43l-17.25-2.51-43.45-6.32-1.85-25.07,0-.35-1.5-20.23A13.24,13.24,0,0,0,642,135a12.56,12.56,0,0,0-3.29.46,13.24,13.24,0,0,0-9.7,14Z"/><circle class="cls-7" cx="595.94" cy="62.19" r="31.47"/><path class="cls-4" d="M637.9,114.64l5.73-1.9s11.44,4.76,11.44,13.35S657,169,657,169l-25.75,2.86Z"/><path class="cls-7" d="M516.17,257.46h22.69l7.76-65,2.81-23.49.39-3.24,2.07-17.39a12,12,0,0,0-18.26-10.83,11.64,11.64,0,0,0-1.34,1,11.9,11.9,0,0,0-4.35,8.76l-2.05,19.12Z"/><path class="cls-4" d="M550.2,169l-25.75-2.86s1.91-34.33,1.91-42.91,11.44-13.36,11.44-13.36l5.72,1.91Z"/><path class="cls-6" d="M541.85,257.46H649.49A210.73,210.73,0,0,0,635.6,219.6c-1-1.93-1.51-3-1.51-3s-45.78-.9-74.39,10.54a14.2,14.2,0,0,0-4.8,3.42C550,235.72,545.61,245.33,541.85,257.46Z"/><path class="cls-4" d="M564.47,104.15s-.91-.49,53.4,1.49l22.74,6.26,3,.84s-2.86,57.22-10.49,67.71-5.73,16.21-3.82,17.16,6.68-1,3.82,3.82-6.68,1.91-2.86,4.77S636,219.55,636,219.55L552.07,231s-2.86-37.19-10.49-56.26S532.05,148,532.05,148l5.72-38.15Z"/><path class="cls-6" d="M562,44.5a31,31,0,0,1,62,0v14H562Z"/><path class="cls-3" d="M698.5,249.59v2.77a6.1,6.1,0,0,1-6.1,6.1h-203a6.1,6.1,0,0,1-6.1-6.1v-2.77a6.1,6.1,0,0,1,6.1-6.1H493a4.94,4.94,0,0,1-.2-1.37V138.5a5.12,5.12,0,0,1,5.12-5.12h186A5.12,5.12,0,0,1,689,138.5V242.12a4.94,4.94,0,0,1-.2,1.37h3.61A6.1,6.1,0,0,1,698.5,249.59Z"/><path class="cls-6" d="M247.54,21a24.34,24.34,0,0,1-6.88-8.36,11.3,11.3,0,0,0-2.38-3.32L231.5,14.5l4.15-7.22c-10.62-6.42-31.36-3-31.36-3C182.72-7.22,174.8,7.12,172,16.21a20,20,0,0,1-5.6,8.57c-5.32,5.07,3.06,14.94,3.06,14.94v.7l2,13.58s2-9,7.28-15.32c3.33-4,8.74-6.36,11.26-6.31,32.46.63,38.61,1.92,38.61,1.92s5.49,3,7.92,4.19c7.84,4,5.93,18.52,5.93,18.52l5.86-25.76C249.71,25,249,22.13,247.54,21Z"/><path class="cls-4" d="M188.55,186.83v-.13c0-2.47,0-4.93,0-7.4a.25.25,0,0,1,.06-.17A30.11,30.11,0,0,1,206,168.6l1.43-.26c.53-.08,1.06-.14,1.6-.2l.95-.07,1.11,0,.76,0c.35,0,.7,0,1.05.05s.68.05,1,.09a8.16,8.16,0,0,1,2.13.5,4.18,4.18,0,0,1,1,.61,1.81,1.81,0,0,1,.29.33.39.39,0,0,1-.06.54,1.5,1.5,0,0,1-.55.31,7.75,7.75,0,0,1-.83.21,2,2,0,0,1-.48,0l-.34,0-.49,0-1.28,0c-.33,0-.66,0-1,0s-.75,0-1.12.1A22.09,22.09,0,0,0,206,172a28.81,28.81,0,0,0-6,3.21,41.83,41.83,0,0,0-6.42,5.52,47.59,47.59,0,0,0-4.66,5.67Z"/><path class="cls-4" d="M226.72,189c0-.17,0-.32,0-.46l0-.49.06-.82c0-.12,0-.24,0-.36s0-.32,0-.48l.06-.82a.43.43,0,0,0-.08-.34l-5.1-6.77a3.34,3.34,0,0,1-.58-1.2,1.84,1.84,0,0,1,.13-1.24.08.08,0,0,0,0-.11l-1.58-1.78-1.64-1.89a.15.15,0,0,1,0-.11,19.18,19.18,0,0,1,2.09-3.92,5.45,5.45,0,0,1,1.3-1.37c.19-.13.41-.21.61-.32h.06v1.31a1.1,1.1,0,0,1-.23.79,6.39,6.39,0,0,0-.55,1,1.58,1.58,0,0,0-.16.72.67.67,0,0,0,.23.48c.18.18.35.38.52.58l2.25,2.52a.23.23,0,0,1,0,.16c0,.23-.08.46-.11.69a4.89,4.89,0,0,0,0,.66,1.33,1.33,0,0,0,.13.62,3.19,3.19,0,0,0,.23.32c.07.08.15.16.22.25,1.41,1.67,2.8,3.35,4.08,5.11a15.67,15.67,0,0,1,1.39,2.14,3.09,3.09,0,0,1,.25.66,2.32,2.32,0,0,1-.42,2,6,6,0,0,1-1.47,1.43,12.14,12.14,0,0,1-1.63,1Z"/><path class="cls-4" d="M572.06,190.43v-7.52a.31.31,0,0,1,.07-.18,30.16,30.16,0,0,1,17.34-10.52c.47-.1.95-.19,1.43-.26s1.06-.14,1.59-.2c.32,0,.64-.05,1-.07l1.11,0,.76,0,1,0,1,.1a7.78,7.78,0,0,1,2.13.5,3.89,3.89,0,0,1,1,.61,1.47,1.47,0,0,1,.29.32.38.38,0,0,1-.07.54,1.27,1.27,0,0,1-.54.31,8.48,8.48,0,0,1-.83.22,2.57,2.57,0,0,1-.48,0l-.34,0-.49,0-1.29,0c-.32,0-.65,0-1,0s-.75.06-1.12.11a22,22,0,0,0-5.25,1.31,29.33,29.33,0,0,0-6,3.22,41.36,41.36,0,0,0-6.42,5.52,47.59,47.59,0,0,0-4.66,5.67Z"/><path class="cls-4" d="M610.23,192.61c0-.17,0-.32,0-.47s0-.32,0-.48,0-.55.05-.82l0-.37c0-.16,0-.32,0-.47l.06-.82a.49.49,0,0,0-.08-.35l-5.1-6.76a3.26,3.26,0,0,1-.58-1.2,1.9,1.9,0,0,1,.12-1.24.09.09,0,0,0,0-.12l-1.58-1.77-1.64-1.89a.15.15,0,0,1,0-.11,19.14,19.14,0,0,1,2.08-3.92,5.49,5.49,0,0,1,1.31-1.37,5.07,5.07,0,0,1,.61-.32h.06v1.31a1.15,1.15,0,0,1-.23.79,5.32,5.32,0,0,0-.55,1,1.45,1.45,0,0,0-.16.71.72.72,0,0,0,.22.49c.19.18.36.38.53.57l2.25,2.53a.26.26,0,0,1,0,.15c0,.23-.09.47-.12.7s0,.44,0,.66a1.18,1.18,0,0,0,.13.61,1.86,1.86,0,0,0,.23.32c.07.09.15.17.22.25,1.41,1.67,2.8,3.36,4.08,5.12a17.29,17.29,0,0,1,1.39,2.13,3.18,3.18,0,0,1,.25.67,2.35,2.35,0,0,1-.42,2,6.1,6.1,0,0,1-1.48,1.43,12,12,0,0,1-1.62,1Z"/></g></g></svg>